# File created by Blade
# Date/Time:  Thu Sep 25 21:01:51 2014
# Frame Rate: 120.000 fps
#------------------------------------------------------
:FULLY-SPECIFIED
:DEGREES
2935
root 4.845814 5.363556 -7.798833 28.980517 -10.706726 -32.444530
Spine 6.170138 5.649774 24.086278
Head -36.019273 9.809831 10.625968
LeftShoulder -4.753719 16.457297 21.283308
LeftArm 26.380621 41.459301 -59.510042
LeftForeArm 21.923853 -0.000000 57.729476
LeftHand -36.355933 0.000000 33.145995
LeftHandThumb1 -26.253704 0.000000 33.147579
RightShoulder -20.229625 15.379805 -21.697939
RightArm -28.233430 14.206605 71.090860
RightForeArm -28.468251 -0.000000 57.442101
RightHand -17.425861 -0.000000 -27.170775
RightHandThumb1 -24.326973 -0.000000 -32.862282
LeftUpLeg -117.235705 -10.801656 -45.690638
LeftLeg 132.661387 -0.000000 -0.000000
LeftFoot 41.506848 11.702053 -29.051248
LeftToeBase 5.168581 -0.000000 -0.000000
RightUpLeg -22.779209 -19.825449 -36.353982
RightLeg 114.117685 -0.000000 -0.000000
RightFoot 22.453560 -12.792525 -1.232291
RightToeBase 16.277598 -0.000000 -0.000000
2936
root 4.846660 5.358680 -7.810370 28.851011 -10.806927 -32.454951
Spine 6.300112 5.630407 24.161834
Head -36.085766 9.777377 10.576134
LeftShoulder -4.759023 16.395278 21.303156
LeftArm 26.466704 41.470120 -59.542572
LeftForeArm 21.803475 -0.000000 57.528178
LeftHand -36.285756 -0.000000 33.030484
LeftHandThumb1 -26.253704 0.000000 33.147579
RightShoulder -20.140265 15.446785 -21.728129
RightArm -27.891803 14.001413 71.257866
RightForeArm -29.027438 0.000000 58.261544
RightHand -17.056063 -0.000000 -26.818349
RightHandThumb1 -24.326973 -0.000000 -32.862282
LeftUpLeg -117.237699 -10.663258 -45.751331
LeftLeg 132.663345 -0.000000 -0.000000
LeftFoot 41.549489 11.695899 -29.109903
LeftToeBase 5.111779 -0.000000 -0.000000
RightUpLeg -22.808761 -19.810726 -36.384805
RightLeg 114.186711 -0.000000 -0.000000
RightFoot 21.705250 -14.096380 1.345866
RightToeBase 19.282408 -0.000000 -0.000000
2937
root 4.849862 5.352851 -7.821359 28.717589 -10.906387 -32.432700
Spine 6.411152 5.641416 24.207847
Head -36.139501 9.719317 10.560167
LeftShoulder -4.707253 16.316950 21.300382
LeftArm 26.498281 41.481439 -59.568156
LeftForeArm 21.921856 -0.000000 57.366076
LeftHand -36.277641 0.000000 33.085452
LeftHandThumb1 -26.253704 0.000000 33.147579
RightShoulder -20.124793 15.514303 -21.744090
RightArm -27.509486 13.629588 71.413352
RightForeArm -29.299238 -0.000000 59.114910
RightHand -17.151249 -0.000000 -26.405521
RightHandThumb1 -24.326973 -0.000000 -32.862282
LeftUpLeg -117.223246 -10.533888 -45.862307
LeftLeg 132.656004 -0.000000 -0.000000
LeftFoot 41.595818 11.601649 -29.026098
LeftToeBase 5.111839 -0.000000 -0.000000
RightUpLeg -22.821288 -19.798696 -36.410080
RightLeg 114.343357 -0.000000 -0.000000
RightFoot 21.055730 -15.045866 2.984442
RightToeBase 20.899918 -0.000000 -0.000000
2938
root 4.850847 5.346856 -7.829470 28.580532 -11.005882 -32.397478
Spine 6.517497 5.677424 24.238237
Head -36.232666 9.620761 10.552864
LeftShoulder -4.677817 16.228500 21.300867
LeftArm 26.536392 41.485158 -59.590231
LeftForeArm 21.852170 -0.000000 57.239273
LeftHand -36.185105 -0.000000 32.894960
LeftHandThumb1 -26.253704 0.000000 33.147579
RightShoulder -20.134992 15.500039 -21.725201
RightArm -27.034603 13.202458 71.599837
RightForeArm -29.553031 -0.000000 59.868177
RightHand -17.039157 -0.000000 -26.269268
RightHandThumb1 -24.326973 -0.000000 -32.862282
LeftUpLeg -117.203385 -10.404937 -45.951424
LeftLeg 132.665067 -0.000000 -0.000000
LeftFoot 41.649059 11.553228 -29.106703
LeftToeBase 5.030989 -0.000000 -0.000000
RightUpLeg -22.840646 -19.896022 -36.423433
RightLeg 114.493379 -0.000000 -0.000000
RightFoot 20.894360 -15.979524 3.555879
RightToeBase 21.001787 -0.000000 -0.000000
2939
root 4.847662 5.340433 -7.838188 28.424967 -11.101722 -32.382303
Spine 6.625956 5.712221 24.275604
Head -36.246043 9.567059 10.607375
LeftShoulder -4.618186 16.144969 21.331832
LeftArm 26.551122 41.487051 -59.637154
LeftForeArm 21.457201 0.000000 57.162733
LeftHand -35.738318 -0.000000 32.231293
LeftHandThumb1 -26.253704 0.000000 33.147579
RightShoulder -20.100844 15.546088 -21.721718
RightArm -26.652819 12.880798 71.788233
RightForeArm -29.914804 -0.000000 60.613317
RightHand -17.092119 -0.000000 -26.049363
RightHandThumb1 -24.326973 -0.000000 -32.862282
LeftUpLeg -117.184843 -10.259948 -46.022278
LeftLeg 132.688127 -0.000000 -0.000000
LeftFoot 41.717493 11.521283 -29.213447
LeftToeBase 4.937930 -0.000000 -0.000000
RightUpLeg -22.844072 -19.984246 -36.411384
RightLeg 114.645020 -0.000000 -0.000000
RightFoot 20.701674 -16.964245 3.985240
RightToeBase 21.101130 -0.000000 -0.000000
